<mxfile host="app.diagrams.net" agent="Mozilla/5.0 (Windows NT 10.0; Win64; x64) AppleWebKit/537.36 (KHTML, like Gecko) Chrome/134.0.0.0 Safari/537.36" version="26.1.3">
  <diagram name="Page-1" id="mPZdhp1g_dq-yQVvP8_k">
    <mxGraphModel grid="1" page="1" gridSize="10" guides="1" tooltips="1" connect="1" arrows="1" fold="1" pageScale="1" pageWidth="827" pageHeight="1169" math="0" shadow="0">
      <root>
        <mxCell id="0" />
        <mxCell id="1" parent="0" />
        <mxCell id="TggI7sr3fnHgPSfvl80T-1" value="" style="ellipse;html=1;shape=startState;fillColor=#000000;strokeColor=#ff0000;" vertex="1" parent="1">
          <mxGeometry x="200" width="30" height="30" as="geometry" />
        </mxCell>
        <mxCell id="TggI7sr3fnHgPSfvl80T-3" value="default riddle?" style="rhombus;whiteSpace=wrap;html=1;fontColor=#000000;fillColor=#ffffc0;strokeColor=#ff0000;" vertex="1" parent="1">
          <mxGeometry x="175" y="130" width="80" height="40" as="geometry" />
        </mxCell>
        <mxCell id="TggI7sr3fnHgPSfvl80T-4" value="yes" style="edgeStyle=orthogonalEdgeStyle;html=1;align=left;verticalAlign=bottom;endArrow=open;endSize=8;strokeColor=#ff0000;rounded=0;entryX=0;entryY=0;entryDx=0;entryDy=0;" edge="1" parent="1" source="TggI7sr3fnHgPSfvl80T-3" target="ZtF7_ruddEU_AIXqhJlK-11">
          <mxGeometry x="-1" relative="1" as="geometry">
            <mxPoint x="420" y="150" as="targetPoint" />
          </mxGeometry>
        </mxCell>
        <mxCell id="ZtF7_ruddEU_AIXqhJlK-1" value="no" style="edgeStyle=orthogonalEdgeStyle;html=1;align=left;verticalAlign=bottom;endArrow=open;endSize=8;strokeColor=#ff0000;rounded=0;exitX=0.5;exitY=1;exitDx=0;exitDy=0;" edge="1" parent="1" source="TggI7sr3fnHgPSfvl80T-3">
          <mxGeometry x="-0.208" y="5" relative="1" as="geometry">
            <mxPoint x="215" y="220" as="targetPoint" />
            <mxPoint x="265" y="160" as="sourcePoint" />
            <mxPoint as="offset" />
          </mxGeometry>
        </mxCell>
        <mxCell id="ZtF7_ruddEU_AIXqhJlK-2" value="Database riddle?" style="rhombus;whiteSpace=wrap;html=1;fontColor=#000000;fillColor=#ffffc0;strokeColor=#ff0000;" vertex="1" parent="1">
          <mxGeometry x="175" y="220" width="80" height="40" as="geometry" />
        </mxCell>
        <mxCell id="ZtF7_ruddEU_AIXqhJlK-3" value="yes" style="edgeStyle=orthogonalEdgeStyle;html=1;align=left;verticalAlign=bottom;endArrow=open;endSize=8;strokeColor=#ff0000;rounded=0;entryX=0;entryY=0.25;entryDx=0;entryDy=0;" edge="1" parent="1" source="ZtF7_ruddEU_AIXqhJlK-2">
          <mxGeometry x="-1" relative="1" as="geometry">
            <mxPoint x="390" y="240" as="targetPoint" />
            <mxPoint as="offset" />
          </mxGeometry>
        </mxCell>
        <mxCell id="ZtF7_ruddEU_AIXqhJlK-4" value="no" style="edgeStyle=orthogonalEdgeStyle;html=1;align=left;verticalAlign=top;endArrow=open;endSize=8;strokeColor=#ff0000;rounded=0;" edge="1" parent="1" source="ZtF7_ruddEU_AIXqhJlK-2">
          <mxGeometry x="-1" relative="1" as="geometry">
            <mxPoint x="215" y="320" as="targetPoint" />
            <mxPoint as="offset" />
          </mxGeometry>
        </mxCell>
        <mxCell id="ZtF7_ruddEU_AIXqhJlK-5" value="create custom riddle" style="rounded=1;whiteSpace=wrap;html=1;arcSize=40;fontColor=#000000;fillColor=#ffffc0;strokeColor=#ff0000;" vertex="1" parent="1">
          <mxGeometry x="155" y="320" width="120" height="40" as="geometry" />
        </mxCell>
        <mxCell id="ZtF7_ruddEU_AIXqhJlK-6" value="" style="edgeStyle=orthogonalEdgeStyle;html=1;verticalAlign=bottom;endArrow=open;endSize=8;strokeColor=#ff0000;rounded=0;entryX=0;entryY=1;entryDx=0;entryDy=0;" edge="1" parent="1" source="ZtF7_ruddEU_AIXqhJlK-5" target="ZtF7_ruddEU_AIXqhJlK-11">
          <mxGeometry relative="1" as="geometry">
            <mxPoint x="450" y="340" as="targetPoint" />
          </mxGeometry>
        </mxCell>
        <mxCell id="ZtF7_ruddEU_AIXqhJlK-21" value="" style="edgeStyle=orthogonalEdgeStyle;rounded=0;orthogonalLoop=1;jettySize=auto;html=1;" edge="1" parent="1" source="ZtF7_ruddEU_AIXqhJlK-11" target="ZtF7_ruddEU_AIXqhJlK-20">
          <mxGeometry relative="1" as="geometry" />
        </mxCell>
        <mxCell id="ZtF7_ruddEU_AIXqhJlK-11" value="story is set" style="rounded=1;whiteSpace=wrap;html=1;arcSize=40;fontColor=#000000;fillColor=#ffffc0;strokeColor=#ff0000;" vertex="1" parent="1">
          <mxGeometry x="600" y="220" width="120" height="40" as="geometry" />
        </mxCell>
        <mxCell id="ZtF7_ruddEU_AIXqhJlK-14" value="riddle options appear" style="rounded=1;whiteSpace=wrap;html=1;arcSize=40;fontColor=#000000;fillColor=#ffffc0;strokeColor=#ff0000;" vertex="1" parent="1">
          <mxGeometry x="155" y="60" width="120" height="40" as="geometry" />
        </mxCell>
        <mxCell id="ZtF7_ruddEU_AIXqhJlK-15" value="" style="edgeStyle=orthogonalEdgeStyle;html=1;align=left;verticalAlign=bottom;endArrow=open;endSize=8;strokeColor=#ff0000;rounded=0;exitX=0.5;exitY=1;exitDx=0;exitDy=0;entryX=0.5;entryY=0;entryDx=0;entryDy=0;" edge="1" parent="1" source="ZtF7_ruddEU_AIXqhJlK-14" target="TggI7sr3fnHgPSfvl80T-3">
          <mxGeometry x="-0.2099" y="5" relative="1" as="geometry">
            <mxPoint x="225" y="230" as="targetPoint" />
            <mxPoint x="225" y="180" as="sourcePoint" />
            <mxPoint as="offset" />
          </mxGeometry>
        </mxCell>
        <mxCell id="ZtF7_ruddEU_AIXqhJlK-16" value="" style="edgeStyle=orthogonalEdgeStyle;html=1;align=left;verticalAlign=bottom;endArrow=open;endSize=8;strokeColor=#ff0000;rounded=0;exitX=0.5;exitY=1;exitDx=0;exitDy=0;entryX=0.5;entryY=0;entryDx=0;entryDy=0;" edge="1" parent="1" source="TggI7sr3fnHgPSfvl80T-1" target="ZtF7_ruddEU_AIXqhJlK-14">
          <mxGeometry x="-0.3333" y="5" relative="1" as="geometry">
            <mxPoint x="235" y="240" as="targetPoint" />
            <mxPoint x="235" y="190" as="sourcePoint" />
            <mxPoint as="offset" />
          </mxGeometry>
        </mxCell>
        <mxCell id="ZtF7_ruddEU_AIXqhJlK-19" value="" style="edgeStyle=orthogonalEdgeStyle;rounded=0;orthogonalLoop=1;jettySize=auto;html=1;" edge="1" parent="1" source="ZtF7_ruddEU_AIXqhJlK-17" target="ZtF7_ruddEU_AIXqhJlK-11">
          <mxGeometry relative="1" as="geometry" />
        </mxCell>
        <mxCell id="ZtF7_ruddEU_AIXqhJlK-17" value="choose riddle from database" style="rounded=1;whiteSpace=wrap;html=1;arcSize=40;fontColor=#000000;fillColor=#ffffc0;strokeColor=#ff0000;" vertex="1" parent="1">
          <mxGeometry x="390" y="220" width="120" height="40" as="geometry" />
        </mxCell>
        <mxCell id="ZtF7_ruddEU_AIXqhJlK-20" value="" style="ellipse;html=1;shape=endState;fillColor=#000000;strokeColor=#ff0000;" vertex="1" parent="1">
          <mxGeometry x="780" y="225" width="30" height="30" as="geometry" />
        </mxCell>
      </root>
    </mxGraphModel>
  </diagram>
</mxfile>
